<svg width="50" height="20" viewBox="0 0 50 20" fill="none" xmlns="http://www.w3.org/2000/svg">
<path fill-rule="evenodd" clip-rule="evenodd" d="M36.5 0C36.5 2.62491 38.0495 5.3761 40.3598 7.4342C41.0033 8.00735 41.715 8.5357 42.4837 9.00032L34.7594 9.00024L13 9.00002L13 10.1111V9C8.98504 9 6.18492 8.73939 4.40082 7.95884C3.54144 7.58287 2.96766 7.10602 2.59706 6.51538C2.22311 5.9194 2 5.11806 2 4H0C0 5.38194 0.276887 6.5806 0.902936 7.57837C1.53234 8.58148 2.45856 9.29213 3.59918 9.79116C5.81508 10.7606 9.01496 11 13 11L13 11L34.7594 11.0002L42.4826 11.0003C41.7144 11.4648 41.003 11.9929 40.3598 12.5658C38.0495 14.6239 36.5 17.3751 36.5 20H38.5C38.5 18.1249 39.6505 15.8761 41.6902 14.0592C43.6878 12.2797 46.4221 11.0257 49.4078 11.0004L49.5024 11.0004L49.5024 9.00039H49.5V9C46.4784 9 43.7083 7.73859 41.6902 5.9408C39.6505 4.1239 38.5 1.87509 38.5 0H36.5Z" fill="black"/>
</svg>
