<svg width="40" height="40" viewBox="0 0 40 40" fill="none" xmlns="http://www.w3.org/2000/svg">
<path d="M19.9951 13.3304C16.3226 13.3304 13.3256 16.3274 13.3256 19.9999C13.3256 23.6724 16.3226 26.6694 19.9951 26.6694C23.6676 26.6694 26.6646 23.6724 26.6646 19.9999C26.6646 16.3274 23.6676 13.3304 19.9951 13.3304ZM39.9986 19.9999C39.9986 17.238 40.0236 14.5012 39.8685 11.7443C39.7134 8.54214 38.9829 5.70022 36.6414 3.35863C34.2948 1.01205 31.4579 0.286559 28.2557 0.131454C25.4938 -0.0236508 22.757 0.00136616 20.0001 0.00136616C17.2383 0.00136616 14.5014 -0.0236508 11.7445 0.131454C8.54238 0.286559 5.70046 1.01705 3.35888 3.35863C1.01229 5.70522 0.286803 8.54214 0.131698 11.7443C-0.0234067 14.5062 0.0016103 17.243 0.0016103 19.9999C0.0016103 22.7567 -0.0234067 25.4986 0.131698 28.2555C0.286803 31.4576 1.0173 34.2995 3.35888 36.6411C5.70546 38.9877 8.54238 39.7132 11.7445 39.8683C14.5064 40.0234 17.2433 39.9984 20.0001 39.9984C22.762 39.9984 25.4988 40.0234 28.2557 39.8683C31.4579 39.7132 34.2998 38.9827 36.6414 36.6411C38.9879 34.2945 39.7134 31.4576 39.8685 28.2555C40.0287 25.4986 39.9986 22.7617 39.9986 19.9999ZM19.9951 30.2618C14.3163 30.2618 9.73318 25.6787 9.73318 19.9999C9.73318 14.321 14.3163 9.73794 19.9951 9.73794C25.674 9.73794 30.257 14.321 30.257 19.9999C30.257 25.6787 25.674 30.2618 19.9951 30.2618ZM30.6773 11.7143C29.3514 11.7143 28.2807 10.6436 28.2807 9.31766C28.2807 7.99176 29.3514 6.92104 30.6773 6.92104C32.0032 6.92104 33.074 7.99176 33.074 9.31766C33.0743 9.6325 33.0126 9.94432 32.8923 10.2353C32.772 10.5262 32.5955 10.7906 32.3729 11.0132C32.1503 11.2358 31.8859 11.4124 31.5949 11.5327C31.304 11.653 30.9922 11.7147 30.6773 11.7143Z" fill="#202020"/>
</svg>
