<svg width="93" height="26" viewBox="0 0 93 26" fill="none" xmlns="http://www.w3.org/2000/svg">
<path d="M8.56034 0H9.95269V11.9815H8.56034V6.66206H1.40953V11.9815H0V0H1.40953V5.47241H8.56034V0Z" fill="#171717"/>
<path d="M11.0973 7.64777C11.0973 6.31083 11.4754 5.2628 12.2318 4.50369C12.9996 3.74458 14.0023 3.36502 15.2399 3.36502C16.4546 3.36502 17.423 3.72758 18.1449 4.4527C18.8669 5.17783 19.2279 6.1862 19.2279 7.47782V8.02166H12.4724C12.5183 8.90541 12.7761 9.62486 13.2459 10.18C13.7273 10.7239 14.4607 10.9958 15.4462 10.9958C16.1567 10.9958 16.7411 10.8315 17.1995 10.5029C17.6579 10.163 17.9616 9.67018 18.1106 9.02437H19.5201C19.4284 9.39826 19.2909 9.74949 19.1075 10.0781C18.9357 10.4066 18.695 10.7352 18.3856 11.0638C18.0876 11.3923 17.6808 11.6586 17.1651 11.8625C16.6609 12.0552 16.0879 12.1515 15.4462 12.1515C14.0023 12.1515 12.9136 11.7323 12.1802 10.8938C11.4582 10.0441 11.0973 8.96206 11.0973 7.64777ZM12.4724 6.96797H17.8527C17.8527 6.26551 17.6235 5.68768 17.1651 5.23448C16.7068 4.76994 16.065 4.53768 15.2399 4.53768C14.4148 4.53768 13.7444 4.76994 13.2288 5.23448C12.7245 5.69901 12.4724 6.27684 12.4724 6.96797Z" fill="#171717"/>
<path d="M20.2198 8.68447H21.5949C21.5949 9.56821 21.7668 10.1857 22.1106 10.5369C22.4544 10.8768 23.0446 11.0468 23.8811 11.0468C24.6031 11.0468 25.113 10.9222 25.411 10.6729C25.7089 10.4123 25.8579 10.0101 25.8579 9.46624C25.8579 8.97905 25.7318 8.62782 25.4797 8.41255C25.2391 8.18595 24.8552 8.07265 24.328 8.07265H23.1763V6.95098H24.328C24.8323 6.95098 25.1818 6.84901 25.3766 6.64507C25.5829 6.44112 25.686 6.13521 25.686 5.72733C25.686 5.31945 25.5485 5.00788 25.2735 4.7926C25.0099 4.57733 24.5228 4.4697 23.8124 4.4697C23.0102 4.4697 22.4658 4.60566 22.1794 4.87758C21.9043 5.13817 21.7668 5.56871 21.7668 6.1692H20.3917C20.3917 5.27413 20.6781 4.583 21.2511 4.09581C21.8241 3.60862 22.6778 3.36502 23.8124 3.36502C24.8437 3.36502 25.6402 3.57463 26.2017 3.99384C26.7747 4.40172 27.0612 4.92857 27.0612 5.57438C27.0612 6.58275 26.4882 7.16058 25.3422 7.30787V7.69876C26.6028 7.88004 27.2331 8.52019 27.2331 9.6192C27.2331 10.401 26.9408 11.0185 26.3564 11.4717C25.7719 11.9249 24.9469 12.1515 23.8811 12.1515C21.4402 12.1515 20.2198 10.9958 20.2198 8.68447Z" fill="#171717"/>
<path d="M27.9409 3.53497H29.3504V4.77561L29.127 5.74433H29.5223C29.7171 5.04187 30.1068 4.4697 30.6912 4.02783C31.2757 3.58596 32.0377 3.36502 32.9774 3.36502C34.1921 3.36502 35.1719 3.77857 35.9168 4.60566C36.6731 5.43275 37.0513 6.48644 37.0513 7.76674C37.0513 9.0357 36.6731 10.0837 35.9168 10.9108C35.1719 11.7379 34.1921 12.1515 32.9774 12.1515C32.0492 12.1515 31.2871 11.9362 30.6912 11.5056C30.1068 11.0638 29.7171 10.4916 29.5223 9.78915H29.127L29.3504 10.7409V15.0746H27.9409V3.53497ZM29.3504 7.76674C29.3504 8.83176 29.6484 9.63053 30.2443 10.163C30.8517 10.6956 31.6252 10.9618 32.5649 10.9618C33.4931 10.9618 34.238 10.6956 34.7995 10.163C35.361 9.63053 35.6418 8.83176 35.6418 7.76674C35.6418 6.70171 35.361 5.90295 34.7995 5.37044C34.238 4.82659 33.4931 4.55467 32.5649 4.55467C31.6252 4.55467 30.8517 4.82093 30.2443 5.35344C29.6484 5.88595 29.3504 6.69038 29.3504 7.76674Z" fill="#171717"/>
<path d="M46.3895 11.9815H44.9971V4.74162L45.2206 3.94285H44.8252L41.0264 11.9815H38.1901V3.53497H39.5996V10.7579L39.3762 11.5906H39.7715L43.5704 3.53497H46.3895V11.9815Z" fill="#171717"/>
<path d="M47.5328 11.9815V3.53497H50.3519L52.3631 11.5906H52.7584L54.7696 3.53497H57.6059V11.9815H56.1963V4.75861L56.437 3.94285H56.0244L53.9789 11.9815H51.1598L49.1143 3.94285H48.7189L48.9424 4.75861V11.9815H47.5328Z" fill="#171717"/>
<path d="M58.7476 9.63619C58.7476 8.18595 59.6816 7.36452 61.5495 7.17191L64.953 6.84901C64.8728 5.30812 64.0706 4.53768 62.5465 4.53768C61.8589 4.53768 61.2859 4.70763 60.8275 5.04753C60.3806 5.38743 60.1571 5.93127 60.1571 6.67906H58.782C58.782 5.76132 59.1201 4.97955 59.7962 4.33374C60.4723 3.68793 61.3891 3.36502 62.5465 3.36502C63.7268 3.36502 64.6551 3.71625 65.3312 4.41871C66.0188 5.12118 66.3625 6.04457 66.3625 7.18891V10.7919H67.6174V11.9815H66.1047C65.4286 11.9815 65.0905 11.6529 65.0905 10.9958V10.5369L65.314 9.65319H64.9014C64.4774 11.3187 63.3773 12.1515 61.6011 12.1515C61.1312 12.1515 60.7129 12.0948 60.3462 11.9815C59.991 11.8569 59.716 11.7096 59.5211 11.5396C59.3263 11.3584 59.1659 11.1488 59.0398 10.9108C58.9138 10.6616 58.8336 10.4406 58.7992 10.248C58.7648 10.0441 58.7476 9.84013 58.7476 9.63619ZM60.1571 9.46624C60.1571 9.9421 60.3004 10.3103 60.5869 10.5709C60.8734 10.8315 61.2687 10.9618 61.773 10.9618C62.7241 10.9618 63.4919 10.6729 64.0763 10.0951C64.6608 9.51723 64.953 8.78078 64.953 7.8857L61.7901 8.20861C61.2286 8.26526 60.8161 8.38989 60.5525 8.5825C60.2889 8.76378 60.1571 9.05836 60.1571 9.46624Z" fill="#171717"/>
<path d="M81.8124 3.53497V11.9815H80.42V8.29359H79.3543L77.6181 11.3187C77.3316 11.7606 76.9191 11.9815 76.3805 11.9815H75.1085V10.8258H76.5008L77.9791 8.22561C77.2342 8.12363 76.6727 7.89137 76.2945 7.52881C75.9164 7.15492 75.7273 6.61674 75.7273 5.91428C75.7273 4.32807 76.8503 3.53497 79.0964 3.53497H81.8124ZM80.42 7.18891V4.63965H79.2168C78.4833 4.63965 77.9505 4.73029 77.6181 4.91157C77.2973 5.09285 77.1368 5.42709 77.1368 5.91428C77.1368 6.40147 77.2973 6.73571 77.6181 6.91699C77.9505 7.09827 78.4833 7.18891 79.2168 7.18891H80.42Z" fill="#171717"/>
<path d="M8.56034 10.9254H9.95269V22.9069H8.56034V17.5874H1.40953V22.9069H0V10.9254H1.40953V16.3978H8.56034V10.9254Z" fill="#171717"/>
<path d="M11.0973 20.5616C11.0973 19.1113 12.0312 18.2899 13.8991 18.0973L17.3027 17.7744C17.2224 16.2335 16.4203 15.4631 14.8961 15.4631C14.2086 15.4631 13.6356 15.633 13.1772 15.9729C12.7303 16.3128 12.5068 16.8567 12.5068 17.6044H11.1316C11.1316 16.6867 11.4697 15.9049 12.1458 15.2591C12.8219 14.6133 13.7387 14.2904 14.8961 14.2904C16.0765 14.2904 17.0047 14.6416 17.6808 15.3441C18.3684 16.0466 18.7122 16.97 18.7122 18.1143V21.7172H19.967V22.9069H18.4543C17.7782 22.9069 17.4402 22.5783 17.4402 21.9212V21.4623L17.6636 20.5786H17.2511C16.8271 22.2441 15.727 23.0769 13.9507 23.0769C13.4809 23.0769 13.0626 23.0202 12.6959 22.9069C12.3406 22.7823 12.0656 22.635 11.8708 22.465C11.676 22.2837 11.5155 22.0741 11.3895 21.8362C11.2634 21.587 11.1832 21.366 11.1488 21.1734C11.1145 20.9695 11.0973 20.7655 11.0973 20.5616ZM12.5068 20.3916C12.5068 20.8675 12.65 21.2357 12.9365 21.4963C13.223 21.7569 13.6184 21.8872 14.1226 21.8872C15.0738 21.8872 15.8416 21.5983 16.426 21.0204C17.0104 20.4426 17.3027 19.7062 17.3027 18.8111L14.1398 19.134C13.5783 19.1906 13.1657 19.3153 12.9022 19.5079C12.6386 19.6892 12.5068 19.9838 12.5068 20.3916Z" fill="#171717"/>
<path d="M30.4835 21.7172V25.1502H29.0739V22.9069H22.5076V25.1502H21.098V21.7172H22.2325C22.6909 20.7995 23.0175 19.7798 23.2123 18.6581C23.4071 17.5365 23.5046 16.1372 23.5046 14.4604H29.349V21.7172H30.4835ZM23.6421 21.7172H27.9394V15.65H24.8969C24.8167 18.1879 24.3984 20.2104 23.6421 21.7172Z" fill="#171717"/>
<path d="M30.7597 18.6751C30.7597 17.4175 31.1493 16.3751 31.9286 15.548C32.7193 14.7096 33.785 14.2904 35.1258 14.2904C35.7217 14.2904 36.2947 14.398 36.8448 14.6133C37.3948 14.8173 37.8933 15.1855 38.3403 15.718C38.7872 16.2392 39.045 16.885 39.1138 17.6554H37.6871C37.4693 16.2052 36.6156 15.4801 35.1258 15.4801C34.1632 15.4801 33.4298 15.7803 32.9256 16.3808C32.4214 16.9813 32.1692 17.7461 32.1692 18.6751C32.1692 19.6042 32.4214 20.3746 32.9256 20.9865C33.4298 21.587 34.1632 21.8872 35.1258 21.8872C36.6156 21.8872 37.4693 21.1621 37.6871 19.7118H39.1138C39.045 20.4823 38.7872 21.1337 38.3403 21.6663C37.8933 22.1874 37.3948 22.5557 36.8448 22.7709C36.2947 22.9749 35.7217 23.0769 35.1258 23.0769C33.785 23.0769 32.7193 22.6633 31.9286 21.8362C31.1493 20.9978 30.7597 19.9441 30.7597 18.6751Z" fill="#171717"/>
<path d="M46.7286 14.4604V15.65H43.5141V22.9069H42.1046V15.65H38.873V14.4604H46.7286Z" fill="#171717"/>
<path d="M47.3549 14.4604H48.7644V15.701L48.541 16.6697H48.9363C49.1311 15.9673 49.5208 15.3951 50.1052 14.9532C50.6897 14.5113 51.4517 14.2904 52.3914 14.2904C53.6061 14.2904 54.5859 14.704 55.3308 15.531C56.0871 16.3581 56.4653 17.4118 56.4653 18.6921C56.4653 19.9611 56.0871 21.0091 55.3308 21.8362C54.5859 22.6633 53.6061 23.0769 52.3914 23.0769C51.4632 23.0769 50.7011 22.8616 50.1052 22.431C49.5208 21.9892 49.1311 21.417 48.9363 20.7145H48.541L48.7644 21.6663V26H47.3549V14.4604ZM48.7644 18.6921C48.7644 19.7572 49.0624 20.5559 49.6583 21.0884C50.2657 21.6209 51.0392 21.8872 51.9789 21.8872C52.9071 21.8872 53.652 21.6209 54.2135 21.0884C54.775 20.5559 55.0558 19.7572 55.0558 18.6921C55.0558 17.6271 54.775 16.8283 54.2135 16.2958C53.652 15.752 52.9071 15.4801 51.9789 15.4801C51.0392 15.4801 50.2657 15.7463 49.6583 16.2788C49.0624 16.8113 48.7644 17.6158 48.7644 18.6921Z" fill="#171717"/>
<path d="M57.2603 18.6751C57.2603 17.4288 57.6786 16.3865 58.5152 15.548C59.3517 14.7096 60.4404 14.2904 61.7812 14.2904C63.1105 14.2904 64.1877 14.7096 65.0128 15.548C65.8493 16.3865 66.2676 17.4288 66.2676 18.6751C66.2676 19.9328 65.8493 20.9808 65.0128 21.8192C64.1877 22.6576 63.1105 23.0769 61.7812 23.0769C60.4404 23.0769 59.3517 22.6576 58.5152 21.8192C57.6786 20.9808 57.2603 19.9328 57.2603 18.6751ZM58.6699 18.6751C58.6699 19.6042 58.9449 20.3746 59.495 20.9865C60.045 21.587 60.8071 21.8872 61.7812 21.8872C62.7552 21.8872 63.5116 21.5813 64.0502 20.9695C64.6002 20.3576 64.8753 19.5929 64.8753 18.6751C64.8753 17.7574 64.6002 16.9983 64.0502 16.3978C63.5116 15.786 62.7552 15.4801 61.7812 15.4801C60.8071 15.4801 60.045 15.786 59.495 16.3978C58.9449 16.9983 58.6699 17.7574 58.6699 18.6751Z" fill="#171717"/>
<path d="M74.0057 10.4155C74.0057 11.2879 73.765 11.9961 73.2837 12.5399C72.8024 13.0724 72.1492 13.3387 71.3241 13.3387C70.4876 13.3387 69.8286 13.0724 69.3473 12.5399C68.866 11.9961 68.6254 11.2879 68.6254 10.4155H69.7771C69.7771 11.0387 69.8974 11.4976 70.138 11.7921C70.3787 12.0867 70.774 12.234 71.3241 12.234C71.8627 12.234 72.2523 12.0924 72.493 11.8091C72.7337 11.5146 72.854 11.05 72.854 10.4155H74.0057ZM75.398 22.9069H74.0057V15.667L74.2291 14.8682H73.8338L70.0349 22.9069H67.1986V14.4604H68.6082V21.6833L68.3847 22.516H68.7801L72.5789 14.4604H75.398V22.9069Z" fill="#171717"/>
<path d="M83.675 22.9069H82.0248L78.9823 19.236C78.8448 19.27 78.7015 19.287 78.5525 19.287H77.9509V22.9069H76.5414V14.4604H77.9509V18.0463H78.6557L80.8731 15.0892C81.1825 14.67 81.6008 14.4604 82.1279 14.4604H83.4687V15.65H82.0764L79.9793 18.4372L83.675 22.9069Z" fill="#171717"/>
<path d="M84.1302 20.5616C84.1302 19.1113 85.0642 18.2899 86.9321 18.0973L90.3356 17.7744C90.2554 16.2335 89.4532 15.4631 87.9291 15.4631C87.2415 15.4631 86.6686 15.633 86.2102 15.9729C85.7632 16.3128 85.5398 16.8567 85.5398 17.6044H84.1646C84.1646 16.6867 84.5027 15.9049 85.1788 15.2591C85.8549 14.6133 86.7717 14.2904 87.9291 14.2904C89.1095 14.2904 90.0377 14.6416 90.7138 15.3441C91.4014 16.0466 91.7452 16.97 91.7452 18.1143V21.7172H93V22.9069H91.4873C90.8112 22.9069 90.4732 22.5783 90.4732 21.9212V21.4623L90.6966 20.5786H90.2841C89.8601 22.2441 88.7599 23.0769 86.9837 23.0769C86.5138 23.0769 86.0956 23.0202 85.7289 22.9069C85.3736 22.7823 85.0986 22.635 84.9038 22.465C84.709 22.2837 84.5485 22.0741 84.4225 21.8362C84.2964 21.587 84.2162 21.366 84.1818 21.1734C84.1474 20.9695 84.1302 20.7655 84.1302 20.5616ZM85.5398 20.3916C85.5398 20.8675 85.683 21.2357 85.9695 21.4963C86.256 21.7569 86.6514 21.8872 87.1556 21.8872C88.1067 21.8872 88.8745 21.5983 89.459 21.0204C90.0434 20.4426 90.3356 19.7062 90.3356 18.8111L87.1728 19.134C86.6113 19.1906 86.1987 19.3153 85.9351 19.5079C85.6716 19.6892 85.5398 19.9838 85.5398 20.3916Z" fill="#171717"/>
</svg>
